<svg xmlns="http://www.w3.org/2000/svg" xmlns:xlink="http://www.w3.org/1999/xlink" id="Ebene_1" width="281" height="217" x="0" y="0" enable-background="new 0 0 281 217" version="1.1" viewBox="0 0 281 217" xml:space="preserve"><g opacity=".9"><linearGradient id="SVGID_1_" x1="119.234" x2="231.748" y1="44.934" y2="165.77" gradientUnits="userSpaceOnUse"><stop offset="0" style="stop-color:#2f96c1"/><stop offset="1" style="stop-color:#2f96c1;stop-opacity:0"/></linearGradient><polygon fill="url(#SVGID_1_)" fill-rule="evenodd" points="200.006 35.75 200.006 105.25 139.107 139.99 80.433 105.044 80.344 105.134 185.759 210.846 186.756 209.846 194.733 201.846 195.731 200.846 280.344 115.994 200.006 35.75" clip-rule="evenodd"/></g><g><g opacity=".1"><path fill="#010202" fill-rule="evenodd" d="M194.77,188.98V185h-11v-10H179v10h-6.01v3.98H179v16.649 c0,3.64,0.93,6.11,2.42,7.41c1.48,1.3,4.109,1.96,7.869,1.96c2.191,0,3.5-0.17,5.48-0.5v-3.97c-2.311,0.33-3.02,0.489-3.68,0.489 c-2.52,0-5.07-0.359-5.9-1.079c-0.83-0.721-1.42-1.851-1.42-4v-16.96H194.77z M161.98,215h4.789v-30h-4.789V215z M161.98,179.97 h4.789v-4.96h-4.789V179.97z M154.789,185h-6.229l-11.791,12.65V175h-4.78v40h4.78v-15.4l12.839,15.4h6.361l-14.201-16.43 L154.789,185z M119.01,215h4.76v-30h-4.76V215z M118.99,179.97h4.78v-4.96h-4.78V179.97z M107.01,207c0,1.53-0.65,2.58-1.85,3.16 c-1.2,0.58-3.22,0.87-6.32,0.87c-1.41,0-2.58-0.14-3.51-0.41c-0.93-0.26-2.03-0.66-2.42-1.17c-0.39-0.521-0.65-1.03-0.77-1.521 c-0.13-0.5-0.37-1.119-0.37-1.859V185H87v21.38c0,2.89,0.55,5.05,2.04,6.48c1.49,1.42,4.22,2.14,8.18,2.14 c6,0,9.16-1.43,9.74-4.28V215h4.81v-30h-4.76V207z" clip-rule="evenodd"/></g><g><g><path fill="#FFF" fill-rule="evenodd" d="M194.77,187.98V184h-11v-10H179v10h-6.01v3.98H179v16.649 c0,3.64,0.93,6.11,2.42,7.41c1.48,1.3,4.109,1.96,7.869,1.96c2.191,0,3.5-0.17,5.48-0.5v-3.97c-2.311,0.33-3.02,0.489-3.68,0.489 c-2.52,0-5.07-0.359-5.9-1.079c-0.83-0.721-1.42-1.851-1.42-4v-16.96H194.77z M161.98,214h4.789v-30h-4.789V214z M161.98,178.97 h4.789v-4.96h-4.789V178.97z M154.789,184h-6.229l-11.791,12.65V174h-4.78v40h4.78v-15.4l12.839,15.4h6.361l-14.201-16.43 L154.789,184z M119.01,214h4.76v-30h-4.76V214z M118.99,178.97h4.78v-4.96h-4.78V178.97z M107.01,206c0,1.53-0.65,2.58-1.85,3.16 c-1.2,0.58-3.22,0.87-6.32,0.87c-1.41,0-2.58-0.14-3.51-0.41c-0.93-0.26-2.03-0.66-2.42-1.17c-0.39-0.521-0.65-1.03-0.77-1.521 c-0.13-0.5-0.37-1.119-0.37-1.859V184H87v21.38c0,2.89,0.55,5.05,2.04,6.48c1.49,1.42,4.22,2.14,8.18,2.14 c6,0,9.16-1.43,9.74-4.28V214h4.81v-30h-4.76V206z" clip-rule="evenodd"/></g></g></g><g><g><path fill="#2C92BE" fill-rule="evenodd" d="M161.87,15.33L138.93,2L114.99,16.87l23.26,12.85L161.87,15.33z M172.84,21.07L149.15,35.48L176,51v41l-36.21,20.58L104,92V60L80,48.08V106l58.93,35L200,106.26v-69.5L172.84,21.07z" clip-rule="evenodd"/></g><g><g><path fill="#FFF" fill-rule="evenodd" d="M161.87,14.33L138.93,1L114.99,15.87l23.26,12.85L161.87,14.33z M172.84,20.07L149.15,34.48L176,50v41l-36.21,20.58L104,91V59L80,47.08V105l58.93,35L200,105.26v-69.5L172.84,20.07z" clip-rule="evenodd"/></g></g></g></svg>